<?xml version="1.0" encoding="utf-8"?>
<!-- Generator: Adobe Illustrator 23.0.1, SVG Export Plug-In . SVG Version: 6.00 Build 0)  -->
<svg version="1.1" id="Capa_1" xmlns="http://www.w3.org/2000/svg" xmlns:xlink="http://www.w3.org/1999/xlink" x="0px" y="0px"
	 viewBox="0 0 478.6 478.6" style="enable-background:new 0 0 478.6 478.6;" xml:space="preserve">
<style type="text/css">
	.st0{fill:#777777;}
</style>
<g id="XMLID_122_">
	<g>
		<path class="st0" d="M427.5,200.7c1.8-11.2,2.9-23.6,3.2-37.4c-0.1-59.2-28.5-80.2-33.9-90c8-44.9-1.3-65.3-5.7-72.3
			c-16.1-5.7-55.9,14.7-77.7,29.1c-35.5-10.4-110.5-9.4-138.6,2.7C122.9-4.4,95.4,1.3,95.4,1.3s-17.7,31.8-4.7,78.4
			c-17.1,21.8-29.8,37.1-29.8,77.9c0,9.8,0.6,19,1.6,27.9c14.7,77.3,76,110.7,136.1,116.4c-9.1,6.9-19.9,19.9-21.4,35
			c-11.4,7.4-34.3,9.8-52.1,4.2c-24.9-7.9-34.5-57.3-71.8-50.2c-8.1,1.5-6.5,6.8,0.5,11.4c11.4,7.4,22.1,16.6,30.4,36.2
			c6.3,15.1,19.7,42,61.9,42c16.7,0,28.5-2,28.5-2s0.3,38.4,0.3,53.4c0,17.2-23.3,22.1-23.3,30.3c0,3.3,7.7,3.6,13.9,3.6
			c12.2,0,37.7-10.2,37.7-28.1c0-14.2,0.2-62.1,0.2-70.5c0-18.3,9.8-24.1,9.8-24.1s1.2,97.7-2.4,110.8
			c-4.2,15.4-11.7,13.2-11.7,20.1c0,10.2,30.6,2.5,40.7-19.9c7.8-17.5,4.3-113.3,4.3-113.3l8.2-0.2c0,0,0.1,43.9-0.2,63.9
			c-0.3,20.8-2.4,47,9.9,59.4c8.1,8.1,32.9,22.5,32.9,9.4c0-7.6-17.4-13.8-17.4-34.4v-94.5c10.6,0,12.7,31.1,12.7,31.1l3.8,57.7
			c0,0-2.5,21.1,22.8,29.9c8.9,3.1,28,4,28.9-1.3c0.9-5.3-23-13-23.2-29.3c-0.1-9.9,0.4-15.7,0.4-58.9c0-43.2-5.8-59.1-26-71.9
			C355.7,295.7,416.5,269.5,427.5,200.7z"/>
	</g>
</g>
</svg>
