<svg id="Layer_1_copy" data-name="Layer 1 copy" xmlns="http://www.w3.org/2000/svg" viewBox="0 0 951.56 230.7"><defs><style>.cls-1{fill:#062c6b;}.cls-2{fill:#e27278;}.cls-3{fill:#19252f;}</style></defs><title>logo42</title><circle class="cls-1" cx="29.54" cy="29.54" r="29.54"/><circle class="cls-2" cx="163.85" cy="29.86" r="29.54"/><circle class="cls-2" cx="79.43" cy="117.23" r="29.54"/><circle class="cls-1" cx="129.46" cy="201.16" r="29.54"/><path class="cls-3" d="M357.82,486.48l-65.5,152.13H263.15l20-46.58L240.3,486.48h30.9l16.33,46.36,10.23,30.25,11.1-29.6,19.58-47Z" transform="translate(-9.39 -429.25)"/><path class="cls-3" d="M478.39,540.24c0,30.9-21.11,55.93-55.93,55.93s-55.71-25-55.71-55.93c0-30.69,21.32-55.94,55.49-55.94S478.39,509.55,478.39,540.24Zm-85.09,0c0,16.32,9.79,31.55,29.16,31.55s29.16-15.23,29.16-31.55c0-16.11-11.31-31.78-29.16-31.78C403.31,508.46,393.3,524.13,393.3,540.24Z" transform="translate(-9.39 -429.25)"/><path class="cls-3" d="M575.68,593.78V537.62c0-16.32-8.93-28.72-25.9-28.72-16.32,0-27.42,13.71-27.42,30v54.85H496V486.26h23.72l1.75,14.58c10.88-10.66,21.76-16.1,35.25-16.1,25.25,0,45.49,18.93,45.49,52.67v56.37Z" transform="translate(-9.39 -429.25)"/><path class="cls-3" d="M736.51,441.65V593.78H711.7L710,579c-8.27,12.84-21.55,17.19-34.6,17.19-31.56,0-55.28-20.89-55.28-56.15,0-37,23.28-56.15,54.62-56.15,11.32,0,28.95,6.09,35.26,17.19V441.65ZM646.63,540c0,18.72,13.49,31.56,30.47,31.56,16.75,0,31.12-12.19,31.12-31.56,0-18.72-14.37-31.34-31.12-31.34C660.12,508.68,646.63,520.65,646.63,540Z" transform="translate(-9.39 -429.25)"/><path class="cls-3" d="M784.17,486.48l2,12.41c8.27-13.28,19.37-15.24,30.25-15.24,11.1,0,21.77,4.35,27.64,10.23l-12,23.07c-5.44-4.57-10.44-7-19.15-7-13.93,0-26.77,7.39-26.77,27.2v56.59H759.58V486.48Z" transform="translate(-9.39 -429.25)"/><path class="cls-3" d="M876.67,549.6c1.74,13.27,13.28,22.85,32,22.85,9.8,0,22.64-3.7,28.73-10l17,16.75C943.05,591,924.55,596.6,908.23,596.6c-37,0-59-22.85-59-57.23,0-32.65,22.2-56.15,57-56.15,35.91,0,58.32,22.2,54.19,66.38Zm58.33-22c-1.75-13.92-12.63-20.89-27.86-20.89-14.37,0-26.12,7-30,20.89Z" transform="translate(-9.39 -429.25)"/></svg>