<?xml version="1.0" encoding="utf-8"?>
<!-- Generator: Adobe Illustrator 23.0.1, SVG Export Plug-In . SVG Version: 6.00 Build 0)  -->
<svg version="1.1" id="Layer_1" xmlns="http://www.w3.org/2000/svg" xmlns:xlink="http://www.w3.org/1999/xlink" x="0px" y="0px"
	 viewBox="0 0 1000 1000" style="enable-background:new 0 0 1000 1000;" xml:space="preserve">
<style type="text/css">
	.st0{fill:#052B6B;}
</style>
<g>
	<path d="M170.7,446.5l-68.4,158.8H71.8l20.9-48.6L48,446.5h32.3l17,48.4l10.7,31.6l11.6-30.9l20.4-49.1H170.7z"/>
	<path d="M296.5,502.7c0,32.3-22,58.4-58.4,58.4S180,534.9,180,502.7c0-32,22.3-58.4,57.9-58.4S296.5,470.6,296.5,502.7z
		 M207.7,502.7c0,17,10.2,32.9,30.4,32.9s30.4-15.9,30.4-32.9c0-16.8-11.8-33.2-30.4-33.2C218.1,469.5,207.7,485.8,207.7,502.7z"/>
	<path d="M398.1,558.5v-58.6c0-17-9.3-30-27-30c-17,0-28.6,14.3-28.6,31.4v57.3h-27.5V446.3h24.8l1.8,15.2
		c11.4-11.1,22.7-16.8,36.8-16.8c26.4,0,47.5,19.8,47.5,55v58.8H398.1z"/>
	<path d="M657.7,399.7v158.8h-25.9l-1.8-15.4c-8.6,13.4-22.5,17.9-36.1,17.9c-32.9,0-57.7-21.8-57.7-58.6c0-38.6,24.3-58.6,57-58.6
		c11.8,0,30.2,6.4,36.8,17.9v-62H657.7z M563.9,502.4c0,19.5,14.1,32.9,31.8,32.9c17.5,0,32.5-12.7,32.5-32.9
		c0-19.5-15-32.7-32.5-32.7C578,469.7,563.9,482.2,563.9,502.4z"/>
	<path d="M707.5,446.5l2,12.9c8.6-13.9,20.2-15.9,31.6-15.9c11.6,0,22.7,4.5,28.9,10.7l-12.5,24.1c-5.7-4.8-10.9-7.3-20-7.3
		c-14.5,0-27.9,7.7-27.9,28.4v59.1h-27.7v-112H707.5z"/>
	<path d="M804,512.4c1.8,13.9,13.9,23.9,33.4,23.9c10.2,0,23.6-3.9,30-10.5l17.7,17.5c-11.8,12.3-31.1,18.2-48.2,18.2
		c-38.6,0-61.6-23.9-61.6-59.7c0-34.1,23.2-58.6,59.5-58.6c37.5,0,60.9,23.2,56.6,69.3H804z M864.9,489.5
		c-1.8-14.5-13.2-21.8-29.1-21.8c-15,0-27.3,7.3-31.4,21.8H864.9z"/>
</g>
<path class="st0" d="M501.4,497c0,33.7-51.1,33.7-51.1,0S501.4,463.3,501.4,497z"/>
</svg>
